HIERARCHY
ROOT reference
{
  OFFSET 0 0 0
  CHANNELS 6 Xposition Yposition Zposition Zrotation Xrotation Yrotation
  JOINT Hips
  {
    OFFSET 0 97.8064 0
    CHANNELS 6 Xposition Yposition Zposition Zrotation Xrotation Yrotation
    JOINT ToSpine
    {
      OFFSET -2.69724 7.43032 -0.144315
      CHANNELS 6 Xposition Yposition Zposition Zrotation Xrotation Yrotation
      JOINT Spine
      {
        OFFSET -0.0310711 10.7595 1.96963
        CHANNELS 6 Xposition Yposition Zposition Zrotation Xrotation Yrotation
        JOINT Spine1
        {
          OFFSET 13.1342 3.43533 0.764692
          CHANNELS 6 Xposition Yposition Zposition Zrotation Xrotation Yrotation
          JOINT Neck
          {
            OFFSET 29.8703 7.82586 -0.130764
            CHANNELS 6 Xposition Yposition Zposition Zrotation Xrotation Yrotation
            JOINT Head
            {
              OFFSET 9.52751 0.295786 -0.907742
              CHANNELS 6 Xposition Yposition Zposition Zrotation Xrotation Yrotation
              End Site
              {
                OFFSET 16.4037 0.713936 2.7358
              }
            }
          }
          JOINT LeftShoulder
          {
            OFFSET 27.5574 4.95586 2.47156
            CHANNELS 6 Xposition Yposition Zposition Zrotation Xrotation Yrotation
            JOINT LeftArm
            {
              OFFSET 1.20734 -0.998971 20.1238
              CHANNELS 6 Xposition Yposition Zposition Zrotation Xrotation Yrotation
              JOINT LeftForeArm
              {
                OFFSET 26.8049 -0.0536703 -0.155908
                CHANNELS 6 Xposition Yposition Zposition Zrotation Xrotation Yrotation
                JOINT LeftHand
                {
                  OFFSET 26.6817 0 0.320147
                  CHANNELS 6 Xposition Yposition Zposition Zrotation Xrotation Yrotation
                  End Site
                  {
                    OFFSET 18.6119 0 0.382219
                  }
                }
              }
            }
          }
          JOINT RightShoulder
          {
            OFFSET 27.5927 4.71444 -2.65209
            CHANNELS 6 Xposition Yposition Zposition Zrotation Xrotation Yrotation
            JOINT RightArm
            {
              OFFSET 2.83739 -1.17114 -18.7564
              CHANNELS 6 Xposition Yposition Zposition Zrotation Xrotation Yrotation
              JOINT RightForeArm
              {
                OFFSET 28.839 -0.0548439 1.22491
                CHANNELS 6 Xposition Yposition Zposition Zrotation Xrotation Yrotation
                JOINT RightHand
                {
                  OFFSET 26.5114 0 -0.101894
                  CHANNELS 6 Xposition Yposition Zposition Zrotation Xrotation Yrotation
                  End Site
                  {
                    OFFSET 18.2168 0 0
                  }
                }
              }
            }
          }
        }
      }
    }
    JOINT LeftUpLeg
    {
      OFFSET -4.76168 -1.9167 -10.2353
      CHANNELS 6 Xposition Yposition Zposition Zrotation Xrotation Yrotation
      JOINT LeftLeg
      {
        OFFSET 2.55951 -42.0585 -8.02213
        CHANNELS 6 Xposition Yposition Zposition Zrotation Xrotation Yrotation
        JOINT LeftFoot
        {
          OFFSET 3.16357 -42.5282 -3.95426
          CHANNELS 6 Xposition Yposition Zposition Zrotation Xrotation Yrotation
          JOINT LeftToeBase
          {
            OFFSET 0.346054 -6.02161 12.8035
            CHANNELS 6 Xposition Yposition Zposition Zrotation Xrotation Yrotation
            End Site
            {
              OFFSET 0.134235 -1.35082 5.13018
            }
          }
        }
      }
    }
    JOINT RightUpLeg
    {
      OFFSET -4.94151 -1.41743 10.6446
      CHANNELS 6 Xposition Yposition Zposition Zrotation Xrotation Yrotation
      JOINT RightLeg
      {
        OFFSET -2.56294 -42.0364 -7.94377
        CHANNELS 6 Xposition Yposition Zposition Zrotation Xrotation Yrotation
        JOINT RightFoot
        {
          OFFSET -3.0952 -42.555 -4.02241
          CHANNELS 6 Xposition Yposition Zposition Zrotation Xrotation Yrotation
          JOINT RightToeBase
          {
            OFFSET -0.0828122 -6.13587 12.8035
            CHANNELS 6 Xposition Yposition Zposition Zrotation Xrotation Yrotation
            End Site
            {
              OFFSET -0.131328 -1.35082 5.13018
            }
          }
        }
      }
    }
  }
}
MOTION
Frames:	10
Frame Time:	0.0333333
0 0 0 0 0 -0 13.5122 87.1287 -26.7216 12.0694 -79.3508 -77.3868 -2.69724 7.43032 -0.144315 -70.1915 -1.49089e-015 88.8779 -0.0310711 10.7595 1.96963 63.7331 61.0098 7.68137 13.1342 3.43533 0.764692 11.7742 9.5355 4.22378 29.8703 7.82586 -0.130764 -124.362 23.4317 169.393 9.52751 0.295786 -0.907742 -166.827 64.4908 -167.962 27.5574 4.95586 2.47156 -1.9055 -22.8423 -33.6362 1.20734 -0.998971 20.1238 -105.678 41.1102 -120.89 26.8049 -0.0536703 -0.155908 22.4031 3.57441 -80.7577 26.6817 -2.84217e-014 0.320147 4.77083e-015 4.77083e-015 -3.18055e-015 27.5927 4.71444 -2.65209 -1.61616 5.29592 45.191 2.83739 -1.17114 -18.7564 -73.0901 -24.8223 93.8979 28.839 -0.0548439 1.22491 13.718 2.1713 98.5334 26.5114 1.42109e-014 -0.101894 -1.10648e-012 -4.76475e-009 -0.0296889 -4.76168 -1.9167 -10.2353 -61.6162 16.7785 121.447 2.55951 -42.0585 -8.02213 -3.98711 59.2445 3.98611 3.16357 -42.5282 -3.95426 -0.90067 -26.3429 -2.34694 0.346054 -6.02161 12.8035 7.94927 -17.2418 18.5416 -4.94151 -1.41743 10.6446 -29.6413 8.95744 107.348 -2.56294 -42.0364 -7.94377 3.62778 45.1008 12.5946 -3.0952 -42.555 -4.02241 0.564589 2.70217 -0.150141 -0.0828122 -6.13587 12.8035 1.08065 -9.82817 1.33351 
0 0 0 0 0 -0 13.4754 87.9115 -26.3128 34.2572 -76.6599 -54.7316 -2.69724 7.43032 -0.144315 -70.1915 -2.78299e-015 88.8779 -0.0310711 10.7595 1.96963 64.959 62.2165 8.37445 13.1342 3.43533 0.764692 11.2583 10.692 4.79095 29.8703 7.82586 -0.130764 -122.366 24.2731 167.534 9.52751 0.295786 -0.907742 -165.329 65.8862 -168.669 27.5574 4.95586 2.47156 -1.59573 -22.2263 -32.2036 1.20734 -0.998971 20.1238 -99.2812 41.7803 -124.842 26.8049 -0.0536703 -0.155908 23.4685 2.5633 -83.4608 26.6817 -2.84217e-014 0.320147 3.18055e-015 0 -0 27.5927 4.71444 -2.65209 -1.62124 5.23013 45.6549 2.83739 -1.17114 -18.7564 -78.2752 -22.3442 93.9185 28.839 -0.0548439 1.22491 12.87 2.13053 98.9224 26.5114 1.42109e-014 -0.101894 -1.10439e-012 -4.76476e-009 -0.0296889 -4.76168 -1.9167 -10.2353 -60.7674 16.099 118.837 2.55951 -42.0585 -8.02213 -4.09296 57.4334 1.19678 3.16357 -42.5282 -3.95426 -0.410679 -25.5383 -2.21826 0.346054 -6.02161 12.8035 7.73225 -16.922 17.5845 -4.94151 -1.41743 10.6446 -30.4358 5.94233 106.476 -2.56294 -42.0364 -7.94377 3.43971 44.3622 11.6588 -3.0952 -42.555 -4.02241 0.916705 3.05862 -0.233238 -0.0828122 -6.13587 12.8035 1.29053 -11.4242 1.50686 
0 0 0 0 0 -0 13.3649 88.7837 -25.8514 48.2963 -72.5904 -40.2265 -2.69724 7.43032 -0.144315 -70.1915 -4.77083e-015 88.8779 -0.0310711 10.7595 1.96963 66.5888 63.3352 8.38201 13.1342 3.43533 0.764692 10.4942 11.5754 5.84198 29.8703 7.82586 -0.130764 -120.808 25.0264 166.931 9.52751 0.295786 -0.907742 -165.01 66.885 -167.849 27.5574 4.95586 2.47156 -1.30744 -21.3638 -31.3125 1.20734 -0.998971 20.1238 -94.25 41.2388 -127.855 26.8049 -0.0536703 -0.155908 23.7659 1.45417 -86.0594 26.6817 -2.84217e-014 0.320147 1.20513e-015 1.88845e-015 -6.36111e-015 27.5927 4.71444 -2.65209 -1.67248 5.55913 44.7244 2.83739 -1.17114 -18.7564 -83.9535 -21.4382 94.3141 28.839 -0.0548439 1.22491 13.2914 2.10842 98.5551 26.5114 2.84217e-014 -0.101894 -1.10545e-012 -4.76474e-009 -0.0296889 -4.76168 -1.9167 -10.2353 -59.9258 14.7757 115.329 2.55951 -42.0585 -8.02213 -3.98531 55.1675 -0.974487 3.16357 -42.5282 -3.95426 -0.455124 -24.5417 -2.13377 0.346054 -6.02161 12.8035 7.52895 -16.6111 16.6534 -4.94151 -1.41743 10.6446 -31.4856 2.45873 104.59 -2.56294 -42.0364 -7.94377 3.35399 43.4181 11.8042 -3.0952 -42.555 -4.02241 1.82614 3.13717 -0.383425 -0.0828122 -6.13587 12.8035 1.47297 -12.1043 -0.0280299 
0 0 0 0 0 -0 13.1914 89.7656 -25.3778 56.8541 -67.7875 -31.3172 -2.69724 7.43032 -0.144315 -70.1915 -3.18055e-015 88.8779 -0.0310711 10.7595 1.96963 67.7466 64.3744 8.79057 13.1342 3.43533 0.764692 9.97303 12.5235 6.38466 29.8703 7.82586 -0.130764 -120.525 25.5645 165.888 9.52751 0.295786 -0.907742 -164.662 67.712 -168.668 27.5574 4.95586 2.47156 -1.01229 -20.6001 -29.9846 1.20734 -0.998971 20.1238 -90.4015 40.0487 -130.121 26.8049 -0.0536703 -0.155908 22.9897 0.389267 -88.1255 26.6817 -2.84217e-014 0.320147 -1.59028e-015 -3.97569e-015 3.18055e-015 27.5927 4.71444 -2.65209 -1.61777 5.63251 43.4035 2.83739 -1.17114 -18.7564 -89.9482 -20.6158 95.3145 28.839 -0.0548439 1.22491 13.3315 2.07194 98.3847 26.5114 2.84217e-014 -0.101894 -1.1109e-012 -4.76475e-009 -0.0296889 -4.76168 -1.9167 -10.2353 -59.4123 13.2486 111.97 2.55951 -42.0585 -8.02213 -3.59006 52.221 -2.28606 3.16357 -42.5282 -3.95426 0.371973 -22.7013 -1.90563 0.346054 -6.02161 12.8035 7.28188 -16.1717 14.8172 -4.94151 -1.41743 10.6446 -32.8792 -1.48711 101.612 -2.56294 -42.0364 -7.94377 3.19151 42.094 11.4763 -3.0952 -42.555 -4.02241 1.81681 3.63991 -0.428274 -0.0828122 -6.13587 12.8035 1.61748 -13.2162 -0.164626 
0 0 0 0 0 -0 12.9456 90.7412 -24.7368 61.3207 -62.8265 -26.1925 -2.69724 7.43032 -0.144315 -70.1915 -4.37326e-015 88.8779 -0.0310711 10.7595 1.96963 67.4503 65.1308 11.2332 13.1342 3.43533 0.764692 9.92691 13.6082 6.18459 29.8703 7.82586 -0.130764 -119.996 25.7539 164.376 9.52751 0.295786 -0.907742 -163.711 68.3581 -169.33 27.5574 4.95586 2.47156 -0.696152 -19.684 -28.4808 1.20734 -0.998971 20.1238 -86.9972 38.8777 -132.208 26.8049 -0.0536703 -0.155908 22.6557 0.0553306 -89.6685 26.6817 -2.84217e-014 0.320147 -1.59028e-015 -2.38542e-015 3.18055e-015 27.5927 4.71444 -2.65209 -1.5855 5.58092 43.1194 2.83739 -1.17114 -18.7564 -96.4776 -18.14 95.958 28.839 -0.0548439 1.22491 13.2319 1.97869 98.0721 26.5114 2.84217e-014 -0.101894 -1.10767e-012 -4.76475e-009 -0.0296889 -4.76168 -1.9167 -10.2353 -58.9006 12.2374 108.879 2.55951 -42.0585 -8.02213 -3.38396 49.1739 -3.9273 3.16357 -42.5282 -3.95426 0.62626 -21.2229 -1.7676 0.346054 -6.02161 12.8035 6.72695 -15.2904 13.1287 -4.94151 -1.41743 10.6446 -34.4347 -4.84173 98.0445 -2.56294 -42.0364 -7.94377 2.93564 40.2205 10.8499 -3.0952 -42.555 -4.02241 1.67178 3.78521 -0.417699 -0.0828122 -6.13587 12.8035 1.60219 -13.3572 0.626207 
0 0 0 0 0 -0 12.658 91.6152 -24.0976 64.4736 -58.3189 -22.8381 -2.69724 7.43032 -0.144315 -70.1915 7.95139e-016 88.8779 -0.0310711 10.7595 1.96963 67.2217 66.3079 12.5739 13.1342 3.43533 0.764692 9.40281 14.8119 6.98262 29.8703 7.82586 -0.130764 -119.694 26.1024 163.173 9.52751 0.295786 -0.907742 -162.02 69.0148 -170.848 27.5574 4.95586 2.47156 -0.484313 -18.9854 -27.4865 1.20734 -0.998971 20.1238 -84.491 37.4991 -133.609 26.8049 -0.0536703 -0.155908 22.3333 -0.649226 -90.5105 26.6817 -2.84217e-014 0.320147 -1.59028e-015 0 3.18055e-015 27.5927 4.71444 -2.65209 -1.64909 5.8457 42.8416 2.83739 -1.17114 -18.7564 -102.726 -14.9764 96.1341 28.839 -0.0548439 1.22491 13.0595 1.91082 97.8953 26.5114 2.84217e-014 -0.101894 -1.10786e-012 -4.76474e-009 -0.0296889 -4.76168 -1.9167 -10.2353 -58.9003 10.8163 105.983 2.55951 -42.0585 -8.02213 -2.92121 45.9534 -4.19838 3.16357 -42.5282 -3.95426 -0.405093 -20.4404 -1.76677 0.346054 -6.02161 12.8035 5.75732 -13.3962 9.50996 -4.94151 -1.41743 10.6446 -36.2005 -7.81927 94.9628 -2.56294 -42.0364 -7.94377 2.82502 38.7068 10.8026 -3.0952 -42.555 -4.02241 1.05279 3.85766 -0.322866 -0.0828122 -6.13587 12.8035 1.73735 -13.9095 -0.961169 
0 0 0 0 0 -0 12.2799 92.4486 -23.3569 66.6534 -53.9114 -20.2978 -2.69724 7.43032 -0.144315 -70.1915 -7.95139e-016 88.8779 -0.0310711 10.7595 1.96963 68.2595 67.2014 13.0822 13.1342 3.43533 0.764692 8.25875 15.7807 6.91252 29.8703 7.82586 -0.130764 -119.181 26.305 162.367 9.52751 0.295786 -0.907742 -161.738 69.4908 -171.04 27.5574 4.95586 2.47156 -0.321436 -18.4653 -26.5635 1.20734 -0.998971 20.1238 -82.8655 36.9077 -134.067 26.8049 -0.0536703 -0.155908 22.7114 -0.945217 -91.6221 26.6817 0 0.320147 -0 -9.54166e-015 -0 27.5927 4.71444 -2.65209 -1.72553 6.38423 41.6351 2.83739 -1.17114 -18.7564 -108.822 -13.2051 95.9069 28.839 -0.0548439 1.22491 13.8289 1.85758 97.2262 26.5114 1.42109e-014 -0.101894 -1.09891e-012 -4.76473e-009 -0.0296889 -4.76168 -1.9167 -10.2353 -58.8338 9.59152 102.933 2.55951 -42.0585 -8.02213 -2.85396 42.8397 -6.10541 3.16357 -42.5282 -3.95426 0.162619 -17.5716 -1.49426 0.346054 -6.02161 12.8035 6.10328 -14.1526 11.1837 -4.94151 -1.41743 10.6446 -38.1045 -10.2247 92.1975 -2.56294 -42.0364 -7.94377 2.5151 37.0299 9.16968 -3.0952 -42.555 -4.02241 1.40577 3.48488 -0.348237 -0.0828122 -6.13587 12.8035 1.58098 -13.0979 0.285441 
0 0 0 0 0 -0 11.8515 93.0452 -22.5199 68.2237 -49.5926 -18.2094 -2.69724 7.43032 -0.144315 -70.1915 -3.97569e-016 88.8779 -0.0310711 10.7595 1.96963 67.2394 67.6681 15.2905 13.1342 3.43533 0.764692 8.35558 16.5424 6.88033 29.8703 7.82586 -0.130764 -119.724 26.8913 162.486 9.52751 0.295786 -0.907742 -164.214 70.0566 -168.77 27.5574 4.95586 2.47156 -0.169933 -17.8959 -25.7683 1.20734 -0.998971 20.1238 -81.5153 35.957 -134.992 26.8049 -0.0536703 -0.155908 22.4746 -1.24957 -92.3004 26.6817 -4.26326e-014 0.320147 -6.36111e-015 -1.59028e-015 9.54166e-015 27.5927 4.71444 -2.65209 -1.52538 6.20217 39.2195 2.83739 -1.17114 -18.7564 -114.05 -12.7058 96.7214 28.839 -0.0548439 1.22491 14.1964 1.58385 95.9704 26.5114 2.84217e-014 -0.101894 -1.1013e-012 -4.76474e-009 -0.0296889 -4.76168 -1.9167 -10.2353 -58.4815 9.33859 100.859 2.55951 -42.0585 -8.02213 -2.64105 40.6198 -6.43598 3.16357 -42.5282 -3.95426 -0.855863 -16.988 -1.47033 0.346054 -6.02161 12.8035 4.95268 -11.7681 7.53805 -4.94151 -1.41743 10.6446 -39.7928 -12.3147 88.6058 -2.56294 -42.0364 -7.94377 2.28736 35.9739 8.27404 -3.0952 -42.555 -4.02241 1.08456 2.96515 -0.2515 -0.0828122 -6.13587 12.8035 1.52137 -13.0361 1.34212 
0 0 0 0 0 -0 11.2676 93.5388 -21.6644 69.4697 -45.7741 -16.3354 -2.69724 7.43032 -0.144315 -70.1915 3.97569e-016 88.8779 -0.0310711 10.7595 1.96963 67.8054 68.0105 16.0253 13.1342 3.43533 0.764692 7.97931 17.0605 6.36593 29.8703 7.82586 -0.130764 -120.137 27.0895 162.713 9.52751 0.295786 -0.907742 -165.548 70.172 -167.838 27.5574 4.95586 2.47156 -0.0755264 -17.5939 -25.0951 1.20734 -0.998971 20.1238 -80.4947 35.5453 -135.346 26.8049 -0.0536703 -0.155908 21.3486 -1.42483 -92.914 26.6817 -1.42109e-014 0.320147 -0 -1.59028e-015 -0 27.5927 4.71444 -2.65209 -1.50167 6.43864 37.9439 2.83739 -1.17114 -18.7564 -118.768 -11.5443 97.4555 28.839 -0.0548439 1.22491 16.2678 1.35949 94.4012 26.5114 2.84217e-014 -0.101894 -1.11084e-012 -4.76474e-009 -0.0296889 -4.76168 -1.9167 -10.2353 -57.9368 9.71361 99.5954 2.55951 -42.0585 -8.02213 -2.73196 39.0134 -8.51071 3.16357 -42.5282 -3.95426 -0.528848 -14.5147 -1.24948 0.346054 -6.02161 12.8035 5.45435 -12.723 8.03995 -4.94151 -1.41743 10.6446 -41.4699 -13.4279 86.2311 -2.56294 -42.0364 -7.94377 1.98825 35.2348 7.45912 -3.0952 -42.555 -4.02241 1.24654 2.17971 -0.208542 -0.0828122 -6.13587 12.8035 1.49283 -12.5219 0.583193 
0 0 0 0 0 -0 10.6121 93.8719 -20.8699 70.3112 -42.1909 -14.5788 -2.69724 7.43032 -0.144315 -70.1915 -3.18055e-015 88.8779 -0.0310711 10.7595 1.96963 68.8817 68.1503 16.065 13.1342 3.43533 0.764692 7.55317 17.2646 6.04205 29.8703 7.82586 -0.130764 -120.166 27.0392 162.357 9.52751 0.295786 -0.907742 -164.448 70.1973 -168.868 27.5574 4.95586 2.47156 0.00166199 -17.3084 -24.5788 1.20734 -0.998971 20.1238 -79.6116 35.6528 -135.558 26.8049 -0.0536703 -0.155908 22.2721 -1.70463 -93.4181 26.6817 -1.42109e-014 0.320147 -6.36111e-015 -1.59028e-015 -0 27.5927 4.71444 -2.65209 -1.38889 6.34493 36.5123 2.83739 -1.17114 -18.7564 -122.567 -10.968 98.5072 28.839 -0.0548439 1.22491 18.3994 0.967058 92.7261 26.5114 4.26326e-014 -0.101894 -1.10448e-012 -4.76474e-009 -0.0296889 -4.76168 -1.9167 -10.2353 -56.7226 10.9204 99.324 2.55951 -42.0585 -8.02213 -2.85696 38.4172 -10.2613 3.16357 -42.5282 -3.95426 -0.210968 -12.437 -1.07257 0.346054 -6.02161 12.8035 5.73669 -13.1121 7.04497 -4.94151 -1.41743 10.6446 -42.8365 -14.1876 83.6125 -2.56294 -42.0364 -7.94377 1.75747 34.7556 6.33414 -3.0952 -42.555 -4.02241 0.891543 1.61088 -0.10757 -0.0828122 -6.13587 12.8035 1.42338 -12.3273 1.35417 
